<?xml version="1.0" encoding="UTF-8" standalone="no"?>
<!DOCTYPE svg PUBLIC "-//W3C//DTD SVG 1.1//EN"
 "http://www.w3.org/Graphics/SVG/1.1/DTD/svg11.dtd">
<!-- Generated by graphviz version 2.36.0 (20140111.2315)
 -->
<!-- Title: G Pages: 1 -->
<svg width="372pt" height="366pt"
 viewBox="0.00 0.00 372.00 366.00" xmlns="http://www.w3.org/2000/svg" xmlns:xlink="http://www.w3.org/1999/xlink">
<g id="graph0" class="graph" transform="scale(1 1) rotate(0) translate(4 362)">
<title>G</title>
<polygon fill="white" stroke="none" points="-4,4 -4,-362 368,-362 368,4 -4,4"/>
<g id="clust1" class="cluster"><title>cluster_Global</title>
<path fill="none" stroke="gray" d="M186,-8C186,-8 344,-8 344,-8 350,-8 356,-14 356,-20 356,-20 356,-338 356,-338 356,-344 350,-350 344,-350 344,-350 186,-350 186,-350 180,-350 174,-344 174,-338 174,-338 174,-20 174,-20 174,-14 180,-8 186,-8"/>
<text text-anchor="middle" x="265" y="-337.2" font-family="Times,serif" font-size="11.00" fill="gray">Global</text>
</g>
<!-- \\TimberStream -->
<g id="node1" class="node"><title>\\TimberStream</title>
<polygon fill="none" stroke="black" points="314,-322 216,-322 216,-286 314,-286 314,-322"/>
<text text-anchor="middle" x="265" y="-301.2" font-family="Courier,monospace" font-size="11.00">TimberStream</text>
</g>
<!-- \\TimberPost -->
<g id="node7" class="node"><title>\\TimberPost</title>
<ellipse fill="none" stroke="black" cx="55" cy="-304" rx="54.6905" ry="18"/>
<text text-anchor="middle" x="55" y="-300.3" font-family="Times,serif" font-size="14.00" fill="gray">\TimberPost</text>
</g>
<!-- \\TimberStream&#45;&gt;\\TimberPost -->
<g id="edge1" class="edge"><title>\\TimberStream&#45;&gt;\\TimberPost</title>
<path fill="none" stroke="black" d="M215.758,-304C187.293,-304 150.916,-304 120.066,-304"/>
<polygon fill="none" stroke="black" points="119.836,-300.5 109.836,-304 119.836,-307.5 119.836,-300.5"/>
</g>
<!-- \\StreamManagerApi -->
<g id="node2" class="node"><title>\\StreamManagerApi</title>
<polygon fill="none" stroke="black" points="327.5,-268 202.5,-268 202.5,-232 327.5,-232 327.5,-268"/>
<text text-anchor="middle" x="265" y="-247.2" font-family="Courier,monospace" font-size="11.00">StreamManagerApi</text>
</g>
<!-- \\StreamManagerManager -->
<g id="node3" class="node"><title>\\StreamManagerManager</title>
<polygon fill="none" stroke="black" points="341,-214 189,-214 189,-178 341,-178 341,-214"/>
<text text-anchor="middle" x="265" y="-193.2" font-family="Courier,monospace" font-size="11.00">StreamManagerManager</text>
</g>
<!-- \\StreamManagerAdmin -->
<g id="node4" class="node"><title>\\StreamManagerAdmin</title>
<polygon fill="none" stroke="black" points="334,-160 196,-160 196,-124 334,-124 334,-160"/>
<text text-anchor="middle" x="265" y="-139.2" font-family="Courier,monospace" font-size="11.00">StreamManagerAdmin</text>
</g>
<!-- \\StreamManager -->
<g id="node5" class="node"><title>\\StreamManager</title>
<polygon fill="none" stroke="black" points="317,-106 213,-106 213,-70 317,-70 317,-106"/>
<text text-anchor="middle" x="265" y="-85.2" font-family="Courier,monospace" font-size="11.00">StreamManager</text>
</g>
<!-- \\StreamManagerUtilities -->
<g id="node6" class="node"><title>\\StreamManagerUtilities</title>
<polygon fill="none" stroke="black" points="347.5,-52 182.5,-52 182.5,-16 347.5,-16 347.5,-52"/>
<text text-anchor="middle" x="265" y="-31.2" font-family="Courier,monospace" font-size="11.00">StreamManagerUtilities</text>
</g>
</g>
</svg>
