<svg xmlns="http://www.w3.org/2000/svg" viewBox="0 0 115.5 154"><style>.st0{fill:#CAE0FF;} .st1{fill:#82B4FC;} .st2{fill:#0468F6;} .st3{fill:#032E6A;} .st4{fill:#FFFFFF;} .st5{fill:#032E6A;stroke:#FFFFFF;stroke-width:3;stroke-miterlimit:10;} .st6{fill:#032E6A;stroke:#FFFFFF;stroke-width:2;stroke-miterlimit:10;} .st7{fill:#FFFFFF;stroke:#032E6A;stroke-width:3;stroke-miterlimit:10;}</style><g id="Layer_1"><path class="st4" d="M74 94c0 8.9-7.3 16.2-16.2 16.2-9 0-16.2-7.3-16.2-16.2 0-9.2 10.3-21.8 16.2-27.9C63.7 72.3 74 84.8 74 94z"/><path class="st4" d="M57.8 35.2c-7.9 7.9-35.5 37.2-35.5 60 0 19.6 15.9 35.5 35.5 35.5s35.5-15.9 35.5-35.5c-.1-22.7-27.7-52.1-35.5-60zm0 81.1c-12.3 0-22.2-10-22.2-22.2C35.6 79 55 60.6 55.8 59.8l2.1-1.9 2 1.9C60.6 60.5 80 78.9 80 94c0 12.3-10 22.3-22.2 22.3zm0-81.1c-7.9 7.9-35.5 37.2-35.5 60 0 19.6 15.9 35.5 35.5 35.5s35.5-15.9 35.5-35.5c-.1-22.7-27.7-52.1-35.5-60zm0 81.1c-12.3 0-22.2-10-22.2-22.2C35.6 79 55 60.6 55.8 59.8l2.1-1.9 2 1.9C60.6 60.5 80 78.9 80 94c0 12.3-10 22.3-22.2 22.3zM57.8 0S0 54.2 0 96.2C0 128.1 25.9 154 57.8 154s57.8-25.9 57.8-57.8C115.5 54.4 57.8 0 57.8 0zm0 136.6c-22.9 0-41.5-18.6-41.5-41.5 0-29 41.5-68.3 41.5-68.3s41.5 39.4 41.5 68.3c0 22.9-18.7 41.5-41.5 41.5zm0-101.4c-7.9 7.9-35.5 37.2-35.5 60 0 19.6 15.9 35.5 35.5 35.5s35.5-15.9 35.5-35.5c-.1-22.7-27.7-52.1-35.5-60zm0 81.1c-12.3 0-22.2-10-22.2-22.2C35.6 79 55 60.6 55.8 59.8l2.1-1.9 2 1.9C60.6 60.5 80 78.9 80 94c0 12.3-10 22.3-22.2 22.3z"/><path class="st4" d="M74 94c0 8.9-7.3 16.2-16.2 16.2-9 0-16.2-7.3-16.2-16.2 0-9.2 10.3-21.8 16.2-27.9C63.7 72.3 74 84.8 74 94z"/><path class="st4" d="M57.8 35.2c-7.9 7.9-35.5 37.2-35.5 60 0 19.6 15.9 35.5 35.5 35.5s35.5-15.9 35.5-35.5c-.1-22.7-27.7-52.1-35.5-60zm0 81.1c-12.3 0-22.2-10-22.2-22.2C35.6 79 55 60.6 55.8 59.8l2.1-1.9 2 1.9C60.6 60.5 80 78.9 80 94c0 12.3-10 22.3-22.2 22.3z"/><g><path class="st4" d="M74 94c0 8.9-7.3 16.2-16.2 16.2-9 0-16.2-7.3-16.2-16.2 0-9.2 10.3-21.8 16.2-27.9C63.7 72.3 74 84.8 74 94z"/></g></g></svg>